<?xml version="1.0" standalone="no"?>
<!DOCTYPE svg PUBLIC "-//W3C//DTD SVG 20010904//EN"
 "http://www.w3.org/TR/2001/REC-SVG-20010904/DTD/svg10.dtd">
<svg version="1.0" xmlns="http://www.w3.org/2000/svg"
 width="300.000000pt" height="300.000000pt" viewBox="0 0 300.000000 300.000000"
 preserveAspectRatio="xMidYMid meet">
<metadata>
Created by potrace 1.10, written by Peter Selinger 2001-2011
</metadata>
<g transform="translate(0.000000,300.000000) scale(0.100000,-0.100000)"
fill="#000000" stroke="none">
<path d="M2055 1869 c-22 -5 -102 -12 -178 -15 -134 -7 -138 -8 -133 -28 2
-12 8 -37 11 -57 7 -36 8 -36 48 -33 23 2 70 5 105 8 l63 4 -51 -56 c-29 -32
-107 -110 -174 -174 l-121 -117 42 -43 42 -42 70 67 c88 86 143 111 237 112
80 0 118 -15 140 -57 21 -41 18 -110 -7 -142 -26 -33 -44 -33 -58 2 -27 63
-103 122 -159 122 -83 0 -142 -54 -142 -130 0 -96 82 -161 204 -162 208 -1
341 151 281 321 -36 104 -109 155 -219 154 l-69 -1 93 93 93 93 -27 46 c-15
25 -32 45 -39 45 -7 -1 -30 -5 -52 -10z m61 -61 c5 -16 -9 -35 -59 -87 -36
-36 -70 -77 -77 -90 -19 -36 11 -58 87 -64 79 -6 122 -32 156 -96 34 -61 35
-127 4 -191 -52 -105 -237 -154 -343 -89 -50 30 -71 87 -49 134 18 37 51 55
103 55 33 0 44 -8 103 -71 75 -81 96 -84 139 -22 36 52 34 127 -4 177 -39 51
-76 67 -155 67 -100 0 -171 -32 -258 -114 -27 -25 -47 -38 -57 -34 -9 4 -16
11 -16 16 0 6 65 76 145 157 79 80 147 156 151 167 5 15 0 26 -15 38 -18 15
-34 17 -89 12 -55 -4 -70 -3 -81 11 -8 9 -12 18 -10 20 2 2 43 7 91 11 49 4
112 10 140 14 66 9 86 4 94 -21z"/>
<path d="M1887 1322 c-24 -26 -21 -55 6 -80 35 -33 80 -44 106 -25 30 20 26
54 -10 91 -36 37 -77 42 -102 14z m87 -43 c34 -40 33 -53 -1 -44 -43 10 -73
33 -73 55 0 32 44 25 74 -11z"/>
<path d="M844 1861 c-2 -2 -4 -124 -4 -271 0 -301 7 -344 62 -397 44 -41 65
-51 125 -59 104 -13 224 33 324 124 l63 58 -34 47 c-18 26 -35 47 -36 47 -1 0
-25 -22 -53 -49 -66 -65 -159 -111 -222 -111 -108 0 -109 4 -109 342 l0 273
-56 0 c-31 0 -58 -2 -60 -4z m79 -55 c3 -7 6 -122 6 -255 0 -175 4 -249 13
-268 38 -76 138 -91 249 -35 35 17 82 47 104 67 35 31 41 33 54 20 13 -13 12
-18 -10 -41 -36 -38 -117 -90 -172 -108 -89 -30 -197 -16 -239 31 -43 48 -48
81 -48 341 0 137 3 252 7 255 11 12 31 8 36 -7z"/>
</g>
</svg>
