<?xml version="1.0" standalone="no"?>
<!DOCTYPE svg PUBLIC "-//W3C//DTD SVG 20010904//EN"
 "http://www.w3.org/TR/2001/REC-SVG-20010904/DTD/svg10.dtd">
<svg version="1.0" xmlns="http://www.w3.org/2000/svg"
 width="300.000000pt" height="300.000000pt" viewBox="0 0 300.000000 300.000000"
 preserveAspectRatio="xMidYMid meet">
<metadata>
Created by potrace 1.10, written by Peter Selinger 2001-2011
</metadata>
<g transform="translate(0.000000,300.000000) scale(0.100000,-0.100000)"
fill="#000000" stroke="none">
<path d="M2609 2286 c-16 -16 -339 -48 -531 -53 -120 -3 -218 -9 -218 -12 1
-3 11 -55 23 -115 l22 -108 133 1 c73 1 170 6 214 11 45 5 84 8 86 5 3 -2
-155 -164 -351 -359 l-356 -355 86 -83 85 -84 76 79 c97 100 208 189 282 227
184 93 434 88 527 -12 66 -71 87 -227 42 -308 -13 -23 -41 -55 -63 -71 l-39
-29 -35 63 c-99 178 -207 259 -347 259 -166 0 -287 -114 -287 -272 0 -223 226
-364 529 -329 215 24 382 131 459 293 61 128 58 296 -6 432 -97 203 -298 296
-540 248 -33 -6 -24 5 120 152 86 88 172 177 193 200 l38 41 -54 89 c-48 79
-73 105 -88 90z m49 -95 c52 -85 57 -74 -92 -228 -212 -219 -222 -232 -193
-260 12 -12 44 -16 144 -17 70 0 135 -5 143 -11 8 -5 21 -10 28 -11 30 -5 103
-57 145 -104 136 -151 164 -360 71 -531 -67 -123 -195 -210 -358 -244 -287
-59 -535 59 -553 263 -12 136 92 250 238 260 112 8 227 -70 311 -211 61 -103
80 -114 137 -79 77 47 117 138 109 247 -15 186 -138 278 -362 274 -200 -3
-338 -72 -539 -268 l-87 -85 -55 54 c-30 30 -55 58 -55 62 0 4 143 150 319
325 175 175 326 333 335 350 16 31 15 34 -5 54 -18 18 -29 20 -73 15 -28 -3
-110 -8 -183 -12 -130 -6 -131 -6 -146 17 -9 13 -17 49 -19 79 l-3 55 152 7
c150 7 443 35 452 44 2 2 28 4 56 4 51 0 52 -1 83 -49z"/>
<path d="M2186 1129 c-30 -24 -35 -75 -11 -113 44 -67 182 -110 225 -71 26 24
25 38 -6 94 -55 98 -147 138 -208 90z m103 -24 c39 -20 119 -139 97 -143 -37
-8 -128 21 -162 50 -73 64 -21 138 65 93z"/>
<path d="M12 1668 c3 -551 5 -597 22 -643 65 -173 191 -261 391 -272 245 -14
475 88 692 307 l71 73 -71 96 c-39 53 -72 97 -73 99 -1 2 -37 -33 -80 -78 -83
-87 -228 -190 -324 -230 -40 -17 -81 -24 -150 -27 -85 -4 -100 -2 -140 19 -25
13 -55 38 -67 57 l-23 34 0 578 0 579 -126 0 -125 0 3 -592z m208 -8 c5 -543
5 -556 26 -595 40 -74 99 -106 204 -111 163 -7 341 79 522 254 36 35 62 53 71
49 9 -3 34 -33 57 -67 l41 -61 -55 -53 c-95 -93 -226 -186 -319 -225 -175 -75
-401 -83 -528 -20 -90 45 -170 165 -189 285 -11 67 -14 1087 -3 1098 4 4 43 5
88 4 l80 -3 5 -555z"/>
</g>
</svg>
